<mxfile host="app.diagrams.net" modified="2022-03-08T13:17:10.324Z" agent="5.0 (Windows NT 10.0; Win64; x64) AppleWebKit/537.36 (KHTML, like Gecko) Chrome/87.0.4280.88 Safari/537.36" etag="n31U9s9BMHAl1vwYL8-n" version="16.6.5" type="github">
  <diagram id="asWj1429aAJWZ4tpV0NL" name="Page-1">
    <mxGraphModel dx="898" dy="431" grid="1" gridSize="10" guides="1" tooltips="1" connect="1" arrows="1" fold="1" page="1" pageScale="1" pageWidth="827" pageHeight="1169" math="0" shadow="0">
      <root>
        <mxCell id="0" />
        <mxCell id="1" parent="0" />
        <mxCell id="DEsvN-4RfbnH3F1TUWvv-13" value="" style="edgeStyle=none;rounded=0;orthogonalLoop=1;jettySize=auto;html=1;" edge="1" parent="1" source="DEsvN-4RfbnH3F1TUWvv-1" target="DEsvN-4RfbnH3F1TUWvv-12">
          <mxGeometry relative="1" as="geometry" />
        </mxCell>
        <mxCell id="DEsvN-4RfbnH3F1TUWvv-15" style="edgeStyle=none;rounded=0;orthogonalLoop=1;jettySize=auto;html=1;exitX=1;exitY=0;exitDx=0;exitDy=0;entryX=0;entryY=0;entryDx=0;entryDy=0;" edge="1" parent="1" source="DEsvN-4RfbnH3F1TUWvv-1" target="DEsvN-4RfbnH3F1TUWvv-12">
          <mxGeometry relative="1" as="geometry" />
        </mxCell>
        <mxCell id="DEsvN-4RfbnH3F1TUWvv-17" style="edgeStyle=none;rounded=0;orthogonalLoop=1;jettySize=auto;html=1;exitX=1;exitY=1;exitDx=0;exitDy=0;entryX=0;entryY=1;entryDx=0;entryDy=0;" edge="1" parent="1" source="DEsvN-4RfbnH3F1TUWvv-1" target="DEsvN-4RfbnH3F1TUWvv-12">
          <mxGeometry relative="1" as="geometry" />
        </mxCell>
        <mxCell id="DEsvN-4RfbnH3F1TUWvv-20" value="" style="edgeStyle=none;rounded=0;orthogonalLoop=1;jettySize=auto;html=1;shape=flexArrow;" edge="1" parent="1" source="DEsvN-4RfbnH3F1TUWvv-1" target="DEsvN-4RfbnH3F1TUWvv-19">
          <mxGeometry relative="1" as="geometry" />
        </mxCell>
        <mxCell id="DEsvN-4RfbnH3F1TUWvv-1" value="&lt;font style=&quot;font-size: 14px&quot;&gt;天线&lt;/font&gt;" style="ellipse;whiteSpace=wrap;html=1;strokeColor=#000000;" vertex="1" parent="1">
          <mxGeometry x="290" y="127.5" width="90" height="55" as="geometry" />
        </mxCell>
        <mxCell id="DEsvN-4RfbnH3F1TUWvv-14" style="edgeStyle=none;rounded=0;orthogonalLoop=1;jettySize=auto;html=1;entryX=1;entryY=0.5;entryDx=0;entryDy=0;" edge="1" parent="1" source="DEsvN-4RfbnH3F1TUWvv-12" target="DEsvN-4RfbnH3F1TUWvv-1">
          <mxGeometry relative="1" as="geometry" />
        </mxCell>
        <mxCell id="DEsvN-4RfbnH3F1TUWvv-16" style="edgeStyle=none;rounded=0;orthogonalLoop=1;jettySize=auto;html=1;exitX=0;exitY=0;exitDx=0;exitDy=0;entryX=1;entryY=0;entryDx=0;entryDy=0;" edge="1" parent="1" source="DEsvN-4RfbnH3F1TUWvv-12" target="DEsvN-4RfbnH3F1TUWvv-1">
          <mxGeometry relative="1" as="geometry" />
        </mxCell>
        <mxCell id="DEsvN-4RfbnH3F1TUWvv-18" style="edgeStyle=none;rounded=0;orthogonalLoop=1;jettySize=auto;html=1;exitX=0;exitY=1;exitDx=0;exitDy=0;entryX=1;entryY=1;entryDx=0;entryDy=0;" edge="1" parent="1" source="DEsvN-4RfbnH3F1TUWvv-12" target="DEsvN-4RfbnH3F1TUWvv-1">
          <mxGeometry relative="1" as="geometry" />
        </mxCell>
        <mxCell id="DEsvN-4RfbnH3F1TUWvv-12" value="&lt;font style=&quot;font-size: 14px&quot;&gt;标签（Tag）&lt;/font&gt;" style="whiteSpace=wrap;html=1;strokeColor=#000000;" vertex="1" parent="1">
          <mxGeometry x="460" y="136.25" width="90" height="37.5" as="geometry" />
        </mxCell>
        <mxCell id="DEsvN-4RfbnH3F1TUWvv-19" value="&lt;font style=&quot;font-size: 14px&quot;&gt;阅读器&lt;/font&gt;" style="rounded=1;whiteSpace=wrap;html=1;strokeColor=#000000;" vertex="1" parent="1">
          <mxGeometry x="150" y="131.25" width="80" height="47.5" as="geometry" />
        </mxCell>
        <mxCell id="DEsvN-4RfbnH3F1TUWvv-22" value="&lt;font style=&quot;font-size: 14px&quot;&gt;计算机系统&lt;br&gt;（解码器）&lt;/font&gt;" style="rounded=1;whiteSpace=wrap;html=1;strokeColor=#000000;" vertex="1" parent="1">
          <mxGeometry x="125" y="250" width="130" height="47.5" as="geometry" />
        </mxCell>
        <mxCell id="DEsvN-4RfbnH3F1TUWvv-23" value="" style="shape=singleArrow;direction=south;whiteSpace=wrap;html=1;strokeColor=#000000;" vertex="1" parent="1">
          <mxGeometry x="175" y="179" width="30" height="71" as="geometry" />
        </mxCell>
        <mxCell id="DEsvN-4RfbnH3F1TUWvv-26" value="&lt;font style=&quot;font-size: 10px&quot;&gt;从阅读器获取数据&lt;br&gt;并解码&lt;/font&gt;" style="whiteSpace=wrap;html=1;shape=mxgraph.basic.oval_callout;strokeColor=#000000;" vertex="1" parent="1">
          <mxGeometry x="250" y="220" width="137.5" height="60" as="geometry" />
        </mxCell>
        <mxCell id="DEsvN-4RfbnH3F1TUWvv-27" value="&lt;font style=&quot;font-size: 11px&quot;&gt;&amp;nbsp; 进入阅读器&lt;br&gt;感应区产生感&lt;br&gt;应电流并向阅&lt;br&gt;读器发出自身&lt;br&gt;信息&lt;/font&gt;" style="whiteSpace=wrap;html=1;shape=mxgraph.basic.oval_callout;fontSize=14;strokeColor=#000000;direction=south;" vertex="1" parent="1">
          <mxGeometry x="470" y="173.75" width="130" height="116.25" as="geometry" />
        </mxCell>
      </root>
    </mxGraphModel>
  </diagram>
</mxfile>
